<svg width="500" height="500" fill="none" xmlns="http://www.w3.org/2000/svg"><path d="M257.563 46v2.855m-8.564 5.708h2.855m5.709 8.564v-2.855m7.136-5.709h-2.855M92.001 165.89v4.281m-12.845 8.564h4.281m8.564 11.418v-4.282m11.418-7.136h-4.281m300.086 142.781a6.18 6.18 0 010 12.357 6.178 6.178 0 01-6.178-6.178" stroke="#CDCDCD" stroke-width="2.921" stroke-linecap="round"/><path fill-rule="evenodd" clip-rule="evenodd" d="M427.495 265.46c3.667-1.144 9.29-5.63 10.591-10.456 1.18 4.266 6.127 9.312 10.591 9.693-5.025 1.78-9.829 7.065-10.591 11.218-.519-4.233-7.164-9.838-10.591-10.455M51 319.613c1.834-.572 4.644-2.815 5.295-5.228.59 2.132 3.063 4.656 5.295 4.847-2.512.888-4.913 3.532-5.295 5.608-.26-2.116-3.582-4.92-5.295-5.227M85.043 121.07a4.79 4.79 0 11-9.58 0 4.79 4.79 0 119.58 0m319.84 12.864a8.007 8.007 0 11-16.012 0 8.007 8.007 0 1116.012 0M391.7 67.352a6.35 6.35 0 11-12.7 0 6.35 6.35 0 1112.7 0" fill="#CDCDCD"/><path clip-rule="evenodd" d="M174.56 408.905a4.004 4.004 0 11-8.008 0 4.004 4.004 0 018.008 0zM172.178 90.29a4.79 4.79 0 11-4.79-4.79 4.79 4.79 0 014.79 4.79zm122.178 362.958a5.93 5.93 0 11-4.217-11.087 5.93 5.93 0 014.217 11.087z" stroke="#CDCDCD" stroke-width="2.921" stroke-linecap="round"/><circle cx="258.001" cy="252.728" r="165.648" fill="#F3F3F3"/><g filter="url(#filter0_d)" fill-rule="evenodd" clip-rule="evenodd"><path opacity=".5" d="M319.601 358.899H196.663c-8.653 0-15.736-7.104-15.736-15.786V167.797c0-8.682 7.083-15.782 15.736-15.782h122.938c8.656 0 15.739 7.1 15.739 15.782v175.316c0 8.682-7.083 15.786-15.739 15.786" fill="#CDCDCD"/><path d="M309.107 366.395H186.169c-8.653 0-15.736-7.104-15.736-15.786V175.293c0-8.682 7.083-15.783 15.736-15.783h122.938c8.656 0 15.739 7.101 15.739 15.783v175.316c0 8.682-7.083 15.786-15.739 15.786" fill="#EBECF0"/><path d="M298.898 372.312H175.706c-8.671 0-15.768-7.075-15.768-15.721v-174.59c0-8.646 7.097-15.717 15.768-15.717h123.192c8.675 0 15.772 7.071 15.772 15.717v174.59c0 8.646-7.097 15.721-15.772 15.721" fill="#D8DBEA"/><path d="M298.898 372.312H175.706c-8.671 0-15.768-7.075-15.768-15.721v-174.59c0-8.646 7.097-15.717 15.768-15.717h123.192c8.675 0 15.772 7.071 15.772 15.717v174.59c0 8.646-7.097 15.721-15.772 15.721" fill="#fff"/><path d="M281.142 219.477H190.15c-2.599 0-4.726-2.023-4.726-4.496 0-2.475 2.127-4.499 4.726-4.499h90.992c2.599 0 4.726 2.024 4.726 4.499 0 2.473-2.127 4.496-4.726 4.496m0 26.985H190.15c-2.599 0-4.726-2.024-4.726-4.496 0-2.476 2.127-4.499 4.726-4.499h90.992c2.599 0 4.726 2.023 4.726 4.499 0 2.472-2.127 4.496-4.726 4.496m0 26.985H190.15c-2.599 0-4.726-2.024-4.726-4.496 0-2.472 2.127-4.499 4.726-4.499h90.992c2.599 0 4.726 2.027 4.726 4.499 0 2.472-2.127 4.496-4.726 4.496m0 26.984H190.15c-2.599 0-4.726-2.023-4.726-4.495 0-2.476 2.127-4.499 4.726-4.499h90.992c2.599 0 4.726 2.023 4.726 4.499 0 2.472-2.127 4.495-4.726 4.495m-43.496 26.986H190.17c-2.61 0-4.746-2.024-4.746-4.496 0-2.476 2.136-4.499 4.746-4.499h47.476c2.61 0 4.746 2.023 4.746 4.499 0 2.472-2.136 4.496-4.746 4.496" fill="#EBECF0"/></g><path fill-rule="evenodd" clip-rule="evenodd" d="M333.474 292.541c-18.195 18.192-46.363 20.244-66.813 6.199a55.078 55.078 0 01-7.42-6.199 49.897 49.897 0 01-3.38-3.711 50.393 50.393 0 01-5.502-8.183 50.146 50.146 0 01-5.502-15.178c-3.212-16.532 1.591-34.327 14.384-47.114 12.823-12.824 30.621-17.596 47.156-14.415a51.858 51.858 0 0115.181 5.501c2.85 1.556 5.566 3.414 8.153 5.535a49.777 49.777 0 013.709 3.379 52.291 52.291 0 016.199 7.42c14.052 20.442 11.995 48.609-6.165 66.766" fill="#fff" fill-opacity=".1"/><path fill-rule="evenodd" clip-rule="evenodd" d="M328.382 288.958c-18.929 18.933-49.605 18.929-68.538 0-18.908-18.908-18.908-49.588.025-68.517 18.908-18.909 49.584-18.909 68.492 0 18.93 18.929 18.93 49.609.021 68.517m9.715-78.243c-24.297-24.297-63.67-24.297-87.968 0-24.294 24.294-24.315 63.692-.021 87.989 22.114 22.107 56.774 24.1 81.152 5.95a63.33 63.33 0 006.862-5.95 62.749 62.749 0 005.946-6.861c18.15-24.382 16.139-59.018-5.971-81.128" fill="#CDCDCD"/><path fill-rule="evenodd" clip-rule="evenodd" d="M433.718 390.294l-1.02 1.02c-6.748 6.752-17.799 6.752-24.551 0l-62.313-62.312 25.572-25.572 62.312 62.312c6.752 6.752 6.752 17.8 0 24.552" fill="#FF7172"/><path fill-rule="evenodd" clip-rule="evenodd" d="M345.411 289.938l18.413 18.413-13.072 13.069-18.41-18.414a64.813 64.813 0 007.002-6.07 63.852 63.852 0 006.067-6.998" fill="#CDCDCD"/><path fill-rule="evenodd" clip-rule="evenodd" d="M432.786 364.976l-25.409 25.405-4.575-4.578 25.406-25.405 4.578 4.578zm-59.967-60.667l-26.104 26.106-3.879-3.878 26.105-26.106 3.878 3.878z" fill="#F25354"/><path fill-rule="evenodd" clip-rule="evenodd" d="M316.961 212.945l-64.019 64.017A44.988 44.988 0 01248 263.316L303.315 208a46.75 46.75 0 0113.646 4.945M272 295.016L336.019 231a44.962 44.962 0 014.942 13.646l-55.315 55.316A46.723 46.723 0 01272 295.016" fill="#fff" fill-opacity=".5"/><defs><filter id="filter0_d" x="113.938" y="106.015" width="265.403" height="310.297" filterUnits="userSpaceOnUse" color-interpolation-filters="sRGB"><feFlood flood-opacity="0" result="BackgroundImageFix"/><feColorMatrix in="SourceAlpha" values="0 0 0 0 0 0 0 0 0 0 0 0 0 0 0 0 0 0 127 0"/><feOffset dx="-1" dy="-1"/><feGaussianBlur stdDeviation="22.5"/><feColorMatrix values="0 0 0 0 0.87451 0 0 0 0 0.878431 0 0 0 0 0.894118 0 0 0 1 0"/><feBlend in2="BackgroundImageFix" result="effect1_dropShadow"/><feBlend in="SourceGraphic" in2="effect1_dropShadow" result="shape"/></filter></defs></svg>